<?xml version="1.0" standalone="no"?><!DOCTYPE svg PUBLIC "-//W3C//DTD SVG 1.1//EN" "http://www.w3.org/Graphics/SVG/1.1/DTD/svg11.dtd"><svg t="1672538452107" class="icon" viewBox="0 0 1024 1024" version="1.1" xmlns="http://www.w3.org/2000/svg" p-id="2998" xmlns:xlink="http://www.w3.org/1999/xlink" width="200" height="200"><path d="M144.896 102.4a42.496 42.496 0 0 0 0 84.992h51.2l120.32 563.2a43.008 43.008 0 0 0 41.984 33.792h83.968a84.992 84.992 0 1 0 84.992 84.992 84.992 84.992 0 0 0-84.992-84.992h256a84.992 84.992 0 1 0 84.992 84.992 84.992 84.992 0 0 0-84.992-84.992h105.984a42.496 42.496 0 1 0 0-84.992h-409.6l-9.216-42.496h399.872a42.496 42.496 0 0 0 39.424-27.648l127.488-339.968a42.496 42.496 0 0 0-39.424-57.344H291.328L271.36 136.192A42.496 42.496 0 0 0 229.888 102.4H144.896z" p-id="2999" fill="#1296db"></path></svg>